<svg width="1024" height="1024" viewBox="0 0 1024 1024" fill="none" xmlns="http://www.w3.org/2000/svg">
  <defs>
    <linearGradient id="bg" x1="140" y1="132" x2="892" y2="900" gradientUnits="userSpaceOnUse">
      <stop offset="0" stop-color="#14243D"/>
      <stop offset="0.54" stop-color="#0E5B64"/>
      <stop offset="1" stop-color="#18BD7D"/>
    </linearGradient>
    <radialGradient id="orbTop" cx="0" cy="0" r="1" gradientUnits="userSpaceOnUse" gradientTransform="translate(244 208) rotate(90) scale(294)">
      <stop stop-color="white" stop-opacity="0.18"/>
      <stop offset="1" stop-color="white" stop-opacity="0"/>
    </radialGradient>
    <radialGradient id="orbBottom" cx="0" cy="0" r="1" gradientUnits="userSpaceOnUse" gradientTransform="translate(788 806) rotate(90) scale(260)">
      <stop stop-color="#7FF0C5" stop-opacity="0.16"/>
      <stop offset="1" stop-color="#7FF0C5" stop-opacity="0"/>
    </radialGradient>
    <linearGradient id="page" x1="0" y1="248" x2="0" y2="778" gradientUnits="userSpaceOnUse">
      <stop stop-color="#FFFFFF"/>
      <stop offset="1" stop-color="#EAF1F7"/>
    </linearGradient>
    <linearGradient id="pageEdge" x1="0" y1="248" x2="0" y2="778" gradientUnits="userSpaceOnUse">
      <stop stop-color="#FFFFFF" stop-opacity="0.8"/>
      <stop offset="1" stop-color="#D8E4ED" stop-opacity="0.9"/>
    </linearGradient>
    <linearGradient id="bookmark" x1="512" y1="188" x2="512" y2="418" gradientUnits="userSpaceOnUse">
      <stop stop-color="#FFD969"/>
      <stop offset="1" stop-color="#FF8743"/>
    </linearGradient>
    <clipPath id="bgClip">
      <rect x="72" y="72" width="880" height="880" rx="220"/>
    </clipPath>
    <filter id="bookShadow" x="196" y="148" width="632" height="696" filterUnits="userSpaceOnUse" color-interpolation-filters="sRGB">
      <feOffset dy="22"/>
      <feGaussianBlur stdDeviation="18"/>
      <feColorMatrix type="matrix" values="0 0 0 0 0.0196078 0 0 0 0 0.0666667 0 0 0 0 0.117647 0 0 0 0.24 0"/>
      <feBlend in="SourceGraphic" mode="normal"/>
    </filter>
    <filter id="ribbonShadow" x="424" y="168" width="176" height="300" filterUnits="userSpaceOnUse" color-interpolation-filters="sRGB">
      <feOffset dy="10"/>
      <feGaussianBlur stdDeviation="10"/>
      <feColorMatrix type="matrix" values="0 0 0 0 0.121569 0 0 0 0 0.168627 0 0 0 0 0.227451 0 0 0 0.25 0"/>
      <feBlend in="SourceGraphic" mode="normal"/>
    </filter>
  </defs>

  <g clip-path="url(#bgClip)">
    <rect x="72" y="72" width="880" height="880" rx="220" fill="url(#bg)"/>
    <circle cx="244" cy="208" r="294" fill="url(#orbTop)"/>
    <circle cx="788" cy="806" r="260" fill="url(#orbBottom)"/>

    <g filter="url(#bookShadow)">
      <g transform="rotate(-7 389 513)">
        <rect x="264" y="248" width="250" height="530" rx="56" fill="#07111C" fill-opacity="0.18" transform="translate(14 18)"/>
        <rect x="264" y="248" width="250" height="530" rx="56" fill="url(#page)"/>
        <rect x="267" y="251" width="244" height="524" rx="53" stroke="url(#pageEdge)" stroke-width="6"/>
        <path d="M330 362H434" stroke="#98A9BF" stroke-opacity="0.7" stroke-width="24" stroke-linecap="round"/>
        <path d="M330 424H456" stroke="#B0BDCE" stroke-opacity="0.62" stroke-width="24" stroke-linecap="round"/>
        <path d="M330 486H418" stroke="#1B7F70" stroke-opacity="0.35" stroke-width="24" stroke-linecap="round"/>
      </g>

      <g transform="rotate(7 635 513)">
        <rect x="510" y="248" width="250" height="530" rx="56" fill="#07111C" fill-opacity="0.18" transform="translate(14 18)"/>
        <rect x="510" y="248" width="250" height="530" rx="56" fill="url(#page)"/>
        <rect x="513" y="251" width="244" height="524" rx="53" stroke="url(#pageEdge)" stroke-width="6"/>
        <path d="M576 362H694" stroke="#98A9BF" stroke-opacity="0.7" stroke-width="24" stroke-linecap="round"/>
        <path d="M576 424H676" stroke="#B0BDCE" stroke-opacity="0.62" stroke-width="24" stroke-linecap="round"/>
        <path d="M576 486H708" stroke="#1B7F70" stroke-opacity="0.42" stroke-width="24" stroke-linecap="round"/>
      </g>
    </g>

    <g filter="url(#ribbonShadow)">
      <path d="M468 188H556V418L512 382L468 418V188Z" fill="url(#bookmark)"/>
      <path d="M490 208V372" stroke="white" stroke-opacity="0.32" stroke-width="10" stroke-linecap="round"/>
    </g>
  </g>

  <rect x="78" y="78" width="868" height="868" rx="214" stroke="white" stroke-opacity="0.13" stroke-width="12"/>
</svg>
